<svg width="1530" height="216" viewBox="0 0 1530 216" fill="none" xmlns="http://www.w3.org/2000/svg">
<path d="M156.936 100.486L133.174 95.167L63.1067 149.015L55.937 141.845L127.795 86.6297L125.643 67.6548C125.381 65.3219 123.541 63.4817 121.218 63.2303L100.936 60.9276L46.9372 132.855L39.7676 125.676L94.3294 52.9836L92.0166 32.4601C91.8758 31.0824 91.1418 29.8255 90.0356 29.0009C88.9295 28.1764 87.5217 27.8345 86.1542 28.0758L57.7169 33.1036C55.8968 33.4254 54.4086 34.7025 53.8153 36.4522L25.75 120.447L17.3938 128.803L60.0498 171.459L68.3959 163.113L152.391 135.048C154.1 134.474 155.377 133.036 155.729 131.267L160.757 106.389C161.31 103.714 159.611 101.09 156.936 100.486Z" fill="white"/>
<path d="M10.2844 135.922L8.81627 137.391C-2.93876 149.156 -2.93876 168.281 8.81627 180.047C14.5078 185.748 22.0897 188.885 30.1443 188.885C38.1988 188.885 45.7808 185.738 51.4722 180.047L52.9404 178.578L10.2844 135.922Z" fill="white"/>
<path d="M298.648 56.912V76.64H271.864V158H247.24V76.64H220.456V56.912H298.648ZM386.75 116.528C386.75 118.832 386.606 121.232 386.318 123.728H330.59C330.974 128.72 332.558 132.56 335.342 135.248C338.222 137.84 341.726 139.136 345.854 139.136C351.998 139.136 356.27 136.544 358.67 131.36H384.878C383.534 136.64 381.086 141.392 377.534 145.616C374.078 149.84 369.71 153.152 364.43 155.552C359.15 157.952 353.246 159.152 346.718 159.152C338.846 159.152 331.838 157.472 325.694 154.112C319.55 150.752 314.75 145.952 311.294 139.712C307.838 133.472 306.11 126.176 306.11 117.824C306.11 109.472 307.79 102.176 311.15 95.936C314.606 89.696 319.406 84.896 325.55 81.536C331.694 78.176 338.75 76.496 346.718 76.496C354.494 76.496 361.406 78.128 367.454 81.392C373.502 84.656 378.206 89.312 381.566 95.36C385.022 101.408 386.75 108.464 386.75 116.528ZM361.55 110.048C361.55 105.824 360.11 102.464 357.23 99.968C354.35 97.472 350.75 96.224 346.43 96.224C342.302 96.224 338.798 97.424 335.918 99.824C333.134 102.224 331.406 105.632 330.734 110.048H361.55ZM444.525 137.12V158H431.997C423.069 158 416.109 155.84 411.117 151.52C406.125 147.104 403.629 139.952 403.629 130.064V98.096H393.837V77.648H403.629V58.064H428.253V77.648H444.381V98.096H428.253V130.352C428.253 132.752 428.829 134.48 429.981 135.536C431.133 136.592 433.053 137.12 435.741 137.12H444.525ZM453.345 117.68C453.345 109.424 454.881 102.176 457.953 95.936C461.121 89.696 465.393 84.896 470.769 81.536C476.145 78.176 482.145 76.496 488.769 76.496C494.433 76.496 499.377 77.648 503.601 79.952C507.921 82.256 511.233 85.28 513.537 89.024V77.648H538.161V158H513.537V146.624C511.137 150.368 507.777 153.392 503.457 155.696C499.233 158 494.289 159.152 488.625 159.152C482.097 159.152 476.145 157.472 470.769 154.112C465.393 150.656 461.121 145.808 457.953 139.568C454.881 133.232 453.345 125.936 453.345 117.68ZM513.537 117.824C513.537 111.68 511.809 106.832 508.353 103.28C504.993 99.728 500.865 97.952 495.969 97.952C491.073 97.952 486.897 99.728 483.441 103.28C480.081 106.736 478.401 111.536 478.401 117.68C478.401 123.824 480.081 128.72 483.441 132.368C486.897 135.92 491.073 137.696 495.969 137.696C500.865 137.696 504.993 135.92 508.353 132.368C511.809 128.816 513.537 123.968 513.537 117.824ZM658.503 76.784C668.487 76.784 676.407 79.808 682.263 85.856C688.215 91.904 691.191 100.304 691.191 111.056V158H666.711V114.368C666.711 109.184 665.319 105.2 662.535 102.416C659.847 99.536 656.103 98.096 651.303 98.096C646.503 98.096 642.711 99.536 639.927 102.416C637.239 105.2 635.895 109.184 635.895 114.368V158H611.415V114.368C611.415 109.184 610.023 105.2 607.239 102.416C604.551 99.536 600.807 98.096 596.007 98.096C591.207 98.096 587.415 99.536 584.631 102.416C581.943 105.2 580.599 109.184 580.599 114.368V158H555.975V77.648H580.599V87.728C583.095 84.368 586.359 81.728 590.391 79.808C594.423 77.792 598.983 76.784 604.071 76.784C610.119 76.784 615.495 78.08 620.199 80.672C624.999 83.264 628.743 86.96 631.431 91.76C634.215 87.344 638.007 83.744 642.807 80.96C647.607 78.176 652.839 76.784 658.503 76.784ZM769.612 106.16C775.468 107.408 780.172 110.336 783.724 114.944C787.276 119.456 789.052 124.64 789.052 130.496C789.052 138.944 786.076 145.664 780.124 150.656C774.268 155.552 766.06 158 755.5 158H708.412V56.912H753.916C764.188 56.912 772.204 59.264 777.964 63.968C783.82 68.672 786.748 75.056 786.748 83.12C786.748 89.072 785.164 94.016 781.996 97.952C778.924 101.888 774.796 104.624 769.612 106.16ZM733.036 97.808H749.164C753.196 97.808 756.268 96.944 758.38 95.216C760.588 93.392 761.692 90.752 761.692 87.296C761.692 83.84 760.588 81.2 758.38 79.376C756.268 77.552 753.196 76.64 749.164 76.64H733.036V97.808ZM751.18 138.128C755.308 138.128 758.476 137.216 760.684 135.392C762.988 133.472 764.14 130.736 764.14 127.184C764.14 123.632 762.94 120.848 760.54 118.832C758.236 116.816 755.02 115.808 750.892 115.808H733.036V138.128H751.18ZM798.438 117.68C798.438 109.424 799.974 102.176 803.046 95.936C806.214 89.696 810.486 84.896 815.862 81.536C821.238 78.176 827.238 76.496 833.862 76.496C839.526 76.496 844.47 77.648 848.694 79.952C853.014 82.256 856.326 85.28 858.63 89.024V77.648H883.254V158H858.63V146.624C856.23 150.368 852.87 153.392 848.55 155.696C844.326 158 839.382 159.152 833.718 159.152C827.19 159.152 821.238 157.472 815.862 154.112C810.486 150.656 806.214 145.808 803.046 139.568C799.974 133.232 798.438 125.936 798.438 117.68ZM858.63 117.824C858.63 111.68 856.902 106.832 853.446 103.28C850.086 99.728 845.958 97.952 841.062 97.952C836.166 97.952 831.99 99.728 828.534 103.28C825.174 106.736 823.494 111.536 823.494 117.68C823.494 123.824 825.174 128.72 828.534 132.368C831.99 135.92 836.166 137.696 841.062 137.696C845.958 137.696 850.086 135.92 853.446 132.368C856.902 128.816 858.63 123.968 858.63 117.824ZM896.173 117.68C896.173 109.424 897.709 102.176 900.781 95.936C903.949 89.696 908.221 84.896 913.597 81.536C918.973 78.176 924.973 76.496 931.597 76.496C936.877 76.496 941.677 77.6 945.997 79.808C950.413 82.016 953.869 84.992 956.365 88.736V51.44H980.989V158H956.365V146.48C954.061 150.32 950.749 153.392 946.429 155.696C942.205 158 937.261 159.152 931.597 159.152C924.973 159.152 918.973 157.472 913.597 154.112C908.221 150.656 903.949 145.808 900.781 139.568C897.709 133.232 896.173 125.936 896.173 117.68ZM956.365 117.824C956.365 111.68 954.637 106.832 951.181 103.28C947.821 99.728 943.693 97.952 938.797 97.952C933.901 97.952 929.725 99.728 926.269 103.28C922.909 106.736 921.229 111.536 921.229 117.68C921.229 123.824 922.909 128.72 926.269 132.368C929.725 135.92 933.901 137.696 938.797 137.696C943.693 137.696 947.821 135.92 951.181 132.368C954.637 128.816 956.365 123.968 956.365 117.824ZM1101.33 76.784C1111.32 76.784 1119.24 79.808 1125.09 85.856C1131.04 91.904 1134.02 100.304 1134.02 111.056V158H1109.54V114.368C1109.54 109.184 1108.15 105.2 1105.36 102.416C1102.68 99.536 1098.93 98.096 1094.13 98.096C1089.33 98.096 1085.54 99.536 1082.76 102.416C1080.07 105.2 1078.72 109.184 1078.72 114.368V158H1054.24V114.368C1054.24 109.184 1052.85 105.2 1050.07 102.416C1047.38 99.536 1043.64 98.096 1038.84 98.096C1034.04 98.096 1030.24 99.536 1027.46 102.416C1024.77 105.2 1023.43 109.184 1023.43 114.368V158H998.803V77.648H1023.43V87.728C1025.92 84.368 1029.19 81.728 1033.22 79.808C1037.25 77.792 1041.81 76.784 1046.9 76.784C1052.95 76.784 1058.32 78.08 1063.03 80.672C1067.83 83.264 1071.57 86.96 1074.26 91.76C1077.04 87.344 1080.84 83.744 1085.64 80.96C1090.44 78.176 1095.67 76.784 1101.33 76.784ZM1163.62 69.296C1159.3 69.296 1155.75 68.048 1152.97 65.552C1150.28 62.96 1148.94 59.792 1148.94 56.048C1148.94 52.208 1150.28 49.04 1152.97 46.544C1155.75 43.952 1159.3 42.656 1163.62 42.656C1167.85 42.656 1171.3 43.952 1173.99 46.544C1176.78 49.04 1178.17 52.208 1178.17 56.048C1178.17 59.792 1176.78 62.96 1173.99 65.552C1171.3 68.048 1167.85 69.296 1163.62 69.296ZM1175.86 77.648V158H1151.24V77.648H1175.86ZM1242.67 76.784C1252.08 76.784 1259.57 79.856 1265.13 86C1270.8 92.048 1273.63 100.4 1273.63 111.056V158H1249.15V114.368C1249.15 108.992 1247.76 104.816 1244.97 101.84C1242.19 98.864 1238.45 97.376 1233.74 97.376C1229.04 97.376 1225.29 98.864 1222.51 101.84C1219.73 104.816 1218.33 108.992 1218.33 114.368V158H1193.71V77.648H1218.33V88.304C1220.83 84.752 1224.19 81.968 1228.41 79.952C1232.64 77.84 1237.39 76.784 1242.67 76.784ZM1335.52 137.12V158H1323C1314.07 158 1307.11 155.84 1302.12 151.52C1297.12 147.104 1294.63 139.952 1294.63 130.064V98.096H1284.84V77.648H1294.63V58.064H1319.25V77.648H1335.38V98.096H1319.25V130.352C1319.25 132.752 1319.83 134.48 1320.98 135.536C1322.13 136.592 1324.05 137.12 1326.74 137.12H1335.52ZM1385.82 159.152C1377.94 159.152 1370.84 157.472 1364.5 154.112C1358.26 150.752 1353.32 145.952 1349.67 139.712C1346.12 133.472 1344.34 126.176 1344.34 117.824C1344.34 109.568 1346.17 102.32 1349.82 96.08C1353.46 89.744 1358.46 84.896 1364.79 81.536C1371.13 78.176 1378.23 76.496 1386.1 76.496C1393.98 76.496 1401.08 78.176 1407.42 81.536C1413.75 84.896 1418.74 89.744 1422.39 96.08C1426.04 102.32 1427.86 109.568 1427.86 117.824C1427.86 126.08 1425.99 133.376 1422.25 139.712C1418.6 145.952 1413.56 150.752 1407.13 154.112C1400.79 157.472 1393.69 159.152 1385.82 159.152ZM1385.82 137.84C1390.52 137.84 1394.5 136.112 1397.77 132.656C1401.13 129.2 1402.81 124.256 1402.81 117.824C1402.81 111.392 1401.18 106.448 1397.91 102.992C1394.74 99.536 1390.81 97.808 1386.1 97.808C1381.3 97.808 1377.32 99.536 1374.15 102.992C1370.98 106.352 1369.4 111.296 1369.4 117.824C1369.4 124.256 1370.94 129.2 1374.01 132.656C1377.18 136.112 1381.11 137.84 1385.82 137.84ZM1489.89 76.784C1499.3 76.784 1506.78 79.856 1512.35 86C1518.02 92.048 1520.85 100.4 1520.85 111.056V158H1496.37V114.368C1496.37 108.992 1494.98 104.816 1492.19 101.84C1489.41 98.864 1485.66 97.376 1480.96 97.376C1476.26 97.376 1472.51 98.864 1469.73 101.84C1466.94 104.816 1465.55 108.992 1465.55 114.368V158H1440.93V77.648H1465.55V88.304C1468.05 84.752 1471.41 81.968 1475.63 79.952C1479.86 77.84 1484.61 76.784 1489.89 76.784Z" fill="white"/>
</svg>
