<svg width="1025" height="216" viewBox="0 0 1025 216" fill="none" xmlns="http://www.w3.org/2000/svg">
<path d="M153.156 100.741L125.545 94.559L122.612 68.694C122.356 66.4175 120.571 64.6219 118.294 64.3766L92.8515 61.5016L89.8196 34.361C89.6626 33.0167 88.966 31.7902 87.8768 30.9856C86.7975 30.1711 85.4336 29.8277 84.0894 30.0828L56.3409 34.9889C54.5649 35.3029 53.1127 36.5491 52.5338 38.2564L25.1483 120.218L12.0885 133.278L8.61499 136.752C3.06136 142.305 0 149.704 0 157.563C0 165.423 3.06136 172.821 8.6248 178.375C14.1784 183.939 21.5767 187 29.4362 187C37.2956 187 44.6939 183.939 50.2476 178.375L53.721 174.902L66.7809 161.841L148.741 134.455C150.399 133.896 151.645 132.493 151.999 130.776L156.905 106.5C157.425 103.891 155.766 101.329 153.156 100.741ZM90.7027 71.1179L113.3 73.6789L115.871 96.2862L54.2313 140.736L46.2541 132.758L90.7027 71.1179ZM60.9133 44.1342L80.6453 40.6509L83.3142 64.5927L39.2286 125.732L35.0487 121.552L60.9133 44.1342ZM15.5619 171.438C11.853 167.729 9.81206 162.803 9.81206 157.563C9.81206 152.323 11.853 147.398 15.5619 143.689L43.3104 171.438C35.8925 178.856 22.9798 178.856 15.5619 171.438ZM50.2476 164.501L22.4991 136.752L29.4362 129.805L57.1945 157.563L50.2476 164.501ZM142.932 126.056L65.4465 151.951L61.2665 147.771L122.15 103.861L146.327 109.268L142.932 126.056Z" fill="#6A1B9A"/>
<path d="M281.648 56.912V76.64H254.864V158H230.24V76.64H203.456V56.912H281.648ZM318.63 76.64V97.088H351.606V116.096H318.63V138.272H355.926V158H294.006V56.912H355.926V76.64H318.63ZM444.632 56.912V76.64H417.848V158H393.224V76.64H366.44V56.912H444.632ZM519.919 140.144H482.191L476.143 158H450.367L486.943 56.912H515.455L552.031 158H525.967L519.919 140.144ZM513.583 121.136L501.055 84.128L488.671 121.136H513.583ZM597.146 159.008C590.522 159.008 584.57 157.856 579.29 155.552C574.106 153.152 570.026 149.888 567.05 145.76C564.074 141.536 562.538 136.688 562.442 131.216H576.41C576.89 135.92 578.81 139.904 582.17 143.168C585.626 146.336 590.618 147.92 597.146 147.92C603.386 147.92 608.282 146.384 611.834 143.312C615.482 140.144 617.306 136.112 617.306 131.216C617.306 127.376 616.25 124.256 614.138 121.856C612.026 119.456 609.386 117.632 606.218 116.384C603.05 115.136 598.778 113.792 593.402 112.352C586.778 110.624 581.45 108.896 577.418 107.168C573.482 105.44 570.074 102.752 567.194 99.104C564.41 95.36 563.018 90.368 563.018 84.128C563.018 78.656 564.41 73.808 567.194 69.584C569.978 65.36 573.866 62.096 578.858 59.792C583.946 57.488 589.754 56.336 596.282 56.336C605.69 56.336 613.37 58.688 619.322 63.392C625.37 68.096 628.778 74.336 629.546 82.112H615.146C614.666 78.272 612.65 74.912 609.098 72.032C605.546 69.056 600.842 67.568 594.986 67.568C589.514 67.568 585.05 69.008 581.594 71.888C578.138 74.672 576.41 78.608 576.41 83.696C576.41 87.344 577.418 90.32 579.434 92.624C581.546 94.928 584.09 96.704 587.066 97.952C590.138 99.104 594.41 100.448 599.882 101.984C606.506 103.808 611.834 105.632 615.866 107.456C619.898 109.184 623.354 111.92 626.234 115.664C629.114 119.312 630.554 124.304 630.554 130.64C630.554 135.536 629.258 140.144 626.666 144.464C624.074 148.784 620.234 152.288 615.146 154.976C610.058 157.664 604.058 159.008 597.146 159.008ZM644.942 107.744C644.942 97.952 647.15 89.168 651.566 81.392C655.982 73.52 661.982 67.376 669.566 62.96C677.246 58.544 685.742 56.336 695.054 56.336C705.998 56.336 715.55 58.976 723.71 64.256C731.87 69.536 737.822 77.024 741.566 86.72H725.87C723.086 80.672 719.054 76.016 713.774 72.752C708.59 69.488 702.35 67.856 695.054 67.856C688.046 67.856 681.758 69.488 676.19 72.752C670.622 76.016 666.254 80.672 663.086 86.72C659.918 92.672 658.334 99.68 658.334 107.744C658.334 115.712 659.918 122.72 663.086 128.768C666.254 134.72 670.622 139.328 676.19 142.592C681.758 145.856 688.046 147.488 695.054 147.488C702.35 147.488 708.59 145.904 713.774 142.736C719.054 139.472 723.086 134.816 725.87 128.768H741.566C737.822 138.368 731.87 145.808 723.71 151.088C715.55 156.272 705.998 158.864 695.054 158.864C685.742 158.864 677.246 156.704 669.566 152.384C661.982 147.968 655.982 141.872 651.566 134.096C647.15 126.32 644.942 117.536 644.942 107.744ZM806.576 159.008C797.264 159.008 788.768 156.848 781.088 152.528C773.408 148.112 767.312 142.016 762.8 134.24C758.384 126.368 756.176 117.536 756.176 107.744C756.176 97.952 758.384 89.168 762.8 81.392C767.312 73.52 773.408 67.424 781.088 63.104C788.768 58.688 797.264 56.48 806.576 56.48C815.984 56.48 824.528 58.688 832.208 63.104C839.888 67.424 845.936 73.472 850.352 81.248C854.768 89.024 856.976 97.856 856.976 107.744C856.976 117.632 854.768 126.464 850.352 134.24C845.936 142.016 839.888 148.112 832.208 152.528C824.528 156.848 815.984 159.008 806.576 159.008ZM806.576 147.632C813.584 147.632 819.872 146 825.44 142.736C831.104 139.472 835.52 134.816 838.688 128.768C841.952 122.72 843.584 115.712 843.584 107.744C843.584 99.68 841.952 92.672 838.688 86.72C835.52 80.672 831.152 76.016 825.584 72.752C820.016 69.488 813.68 67.856 806.576 67.856C799.472 67.856 793.136 69.488 787.568 72.752C782 76.016 777.584 80.672 774.32 86.72C771.152 92.672 769.568 99.68 769.568 107.744C769.568 115.712 771.152 122.72 774.32 128.768C777.584 134.816 782 139.472 787.568 142.736C793.232 146 799.568 147.632 806.576 147.632ZM927.124 158L903.22 116.96H887.38V158H874.276V57.632H906.676C914.26 57.632 920.644 58.928 925.828 61.52C931.108 64.112 935.044 67.616 937.636 72.032C940.228 76.448 941.524 81.488 941.524 87.152C941.524 94.064 939.508 100.16 935.476 105.44C931.54 110.72 925.588 114.224 917.62 115.952L942.82 158H927.124ZM887.38 106.448H906.676C913.78 106.448 919.108 104.72 922.66 101.264C926.212 97.712 927.988 93.008 927.988 87.152C927.988 81.2 926.212 76.592 922.66 73.328C919.204 70.064 913.876 68.432 906.676 68.432H887.38V106.448ZM974.989 68.288V101.84H1011.56V112.64H974.989V147.2H1015.88V158H961.885V57.488H1015.88V68.288H974.989Z" fill="#6A1B9A"/>
</svg>
